Patient4_TMGait_0pt5_02_left_02_GRF.mot
version=1
nRows=52
nColumns=19
inDegrees=no
endheader
time	F1x	F1y	F1z	M1x	M1y	M1z	F2x	F2y	F2z	M2x	M2y	M2z	EC1x	EC1y	EC1z	EC2x	EC2y	EC2z
1.89	-2.3473	8.3847	-7.8976	0.068934	2.6656	0.22016	-9.3898	772.5903	-55.0003	303.0054	41.1009	619.1838	-0.0592	0.0182	-0.0073	-0.0462	0.0165	0.9585
1.9029	-1.5633	6.3797	-5.2202	-0.23128	1.7041	0.85286	-7.6772	769.547	-51.2494	301.7263	38.8568	613.0006	-0.0592	0.0182	-0.0073	-0.0462	0.0165	0.9585
1.9159	-0.89096	4.6655	-2.9762	-0.48546	0.92032	1.3275	-5.8516	766.7912	-47.8948	300.574	36.5642	606.7194	-0.0592	0.0182	-0.0073	-0.0462	0.0165	0.9585
1.9288	-0.37298	3.3579	-1.289	-0.68389	0.34843	1.6526	-4.0277	764.6829	-45.1953	299.686	34.3983	600.814	-0.0592	0.0182	-0.0073	-0.0462	0.0165	0.9585
1.9417	-0.027559	2.4655	-0.14197	-0.82844	-0.033813	1.8719	-2.287	763.4638	-43.2763	299.1408	32.5085	595.6121	-0.0592	0.0182	-0.0073	-0.0462	0.0165	0.9585
1.9546	0.17469	1.9206	0.54739	-0.92366	-0.262	2.005	-0.68572	763.2254	-42.1351	298.9543	30.9736	591.2935	-0.0592	0.0182	-0.0073	-0.0462	0.0165	0.9585
1.9676	0.24732	1.6329	0.8935	-0.97358	-0.38829	2.084	0.73964	763.8871	-41.7178	299.0775	29.8453	587.8671	-0.0592	0.0182	-0.0073	-0.0462	0.0165	0.9585
1.9805	0.22963	1.4883	1.0084	-0.97614	-0.44867	2.1001	1.966	765.2014	-41.9232	299.4025	29.1273	585.1789	-0.0592	0.0182	-0.0073	-0.0462	0.0165	0.9585
1.9934	0.14448	1.3778	0.98994	-0.92641	-0.47777	2.0457	2.9993	766.7789	-42.6393	299.7732	28.7946	582.942	-0.0592	0.0182	-0.0073	-0.0462	0.0165	0.9585
2.0064	0.018862	1.1876	0.90857	-0.81161	-0.49641	1.8646	3.8554	768.1395	-43.7255	300.005	28.7824	580.7889	-0.0592	0.0182	-0.0073	-0.0462	0.0165	0.9585
2.0193	-0.13167	0.80506	0.81336	-0.60992	-0.51923	1.4811	4.5439	768.8033	-45.0214	299.9182	29.0023	578.357	-0.0592	0.0182	-0.0073	-0.0462	0.0165	0.9585
2.0322	-0.28185	0.13516	0.7247	-0.2994	-0.54008	0.82692	5.0837	768.403	-46.3506	299.381	29.3427	575.3667	-0.0592	0.0182	-0.0073	-0.0462	0.0165	0.9585
2.0451	-0.37865	-0.89434	0.65166	0.13972	-0.54406	-0.16706	5.4921	766.7541	-47.5452	298.3336	29.6887	571.6647	-0.0592	0.0182	-0.0073	-0.0462	0.0165	0.9585
2.0581	-0.37634	-2.2969	0.57943	0.71128	-0.50011	-1.5072	5.7921	763.8281	-48.4949	296.7755	29.9568	567.1967	-0.0592	0.0182	-0.0073	-0.0462	0.0165	0.9585
2.071	-0.19015	-4.0075	0.49283	1.3882	-0.3652	-3.1336	6.0174	759.78	-49.1655	294.7724	30.1099	562.0316	-0.0592	0.0182	-0.0073	-0.0462	0.0165	0.9585
2.0839	0.26668	-5.8161	0.36159	2.0876	-0.077617	-4.8421	6.2384	754.9635	-49.5978	292.4658	30.1475	556.3642	-0.0592	0.0182	-0.0073	-0.0462	0.0165	0.9585
2.0969	1.1072	-7.305	0.16088	2.6494	0.42439	-6.2603	6.5532	749.876	-49.8717	290.0513	30.0787	550.4882	-0.0592	0.0182	-0.0073	-0.0462	0.0165	0.9585
2.1098	2.4247	-7.7622	-0.14306	2.8045	1.2014	-6.7569	7.0912	745.0415	-50.0802	287.732	29.9107	544.7153	-0.0592	0.0182	-0.0073	-0.0462	0.0165	0.9585
2.1227	4.2775	-6.1436	-0.57484	2.1606	2.2915	-5.4068	7.9812	740.8228	-50.2959	285.6491	29.6357	539.2533	-0.0592	0.0182	-0.0073	-0.0462	0.0165	0.9585
2.1356	6.6433	-1.0665	-1.1441	0.19424	3.6901	-0.96871	9.3026	737.2717	-50.5715	283.8227	29.2566	534.1246	-0.0592	0.0182	-0.0073	-0.0462	0.0165	0.9585
2.1486	9.3385	9.1231	-1.8209	-3.7199	5.2959	8.0496	11.0837	733.9978	-50.9092	282.1047	28.7648	529.0572	-0.0592	0.0182	-0.0073	-0.0462	0.0165	0.9585
2.1615	11.9465	26.1407	-2.5169	-10.2309	6.8657	23.1971	13.2636	730.1641	-51.2449	280.1767	28.1433	523.5047	-0.0592	0.0182	-0.0073	-0.0462	0.0165	0.9585
2.1744	13.7134	51.4142	-3.0537	-19.873	7.9492	45.7902	15.7192	724.5421	-51.4403	277.5769	27.3537	516.6712	-0.0592	0.0182	-0.0073	-0.0462	0.0165	0.9585
2.1874	13.6095	85.5594	-3.1839	-32.8678	7.9283	76.424	18.2567	715.6735	-51.304	273.763	26.3485	507.6398	-0.0592	0.0182	-0.0073	-0.0462	0.0165	0.9585
2.2003	10.691	127.933	-2.607	-48.952	6.1777	114.5823	20.6483	702.0769	-50.6206	268.1916	25.0733	495.4887	-0.0592	0.0182	-0.0073	-0.0462	0.0165	0.9585
2.2132	5.0666	176.5218	-0.9744	-67.3283	2.4259	158.4933	22.6665	682.5245	-49.2004	260.4173	23.4867	479.4684	-0.0592	0.0182	-0.0073	-0.0462	0.0165	0.9585
2.2261	-2.1721	227.4357	2.1022	-86.479	-3.2583	204.5774	24.128	656.2415	-46.9357	250.1634	21.5771	459.1143	-0.0592	0.0182	-0.0073	-0.0462	0.0165	0.9585
2.2391	-9.6956	275.107	6.8253	-104.3	-10.5313	247.5991	24.936	623.0128	-43.8629	237.3584	19.3991	434.31	-0.0592	0.0182	-0.0073	-0.0462	0.0165	0.9585
2.252	-16.2242	315.6538	12.5202	-119.3694	-18.2525	283.8118	25.0776	583.3027	-40.1656	222.1743	17.0699	405.382	-0.0592	0.0182	-0.0073	-0.0462	0.0165	0.9585
2.2649	-21.2161	348.627	18.3017	-131.5762	-25.3753	312.7052	24.6168	538.203	-36.1736	205.0062	14.771	373.068	-0.0592	0.0182	-0.0073	-0.0462	0.0165	0.9585
2.2779	-24.4904	375.9315	23.4148	-141.6988	-31.1487	335.9183	23.6663	489.1865	-32.2347	186.3848	12.6727	338.3576	-0.0592	0.0182	-0.0073	-0.0462	0.0165	0.9585
2.2908	-26.193	400.3416	27.4487	-150.8216	-35.2655	355.9421	22.3142	437.7912	-28.5678	166.8709	10.8765	302.2661	-0.0592	0.0182	-0.0073	-0.0462	0.0165	0.9585
2.3037	-26.5257	424.5154	30.2714	-159.959	-37.7034	375.1128	20.5773	385.4673	-25.2129	146.9981	9.4007	265.7592	-0.0592	0.0182	-0.0073	-0.0462	0.0165	0.9585
2.3166	-25.799	450.5998	32.1409	-169.8904	-38.8319	395.3623	18.4313	333.4853	-22.1399	127.2382	8.2395	229.684	-0.0592	0.0182	-0.0073	-0.0462	0.0165	0.9585
2.3296	-24.3583	480.0109	33.4808	-181.0954	-39.173	417.9804	15.8497	282.9496	-19.304	108.0071	7.3751	194.7683	-0.0592	0.0182	-0.0073	-0.0462	0.0165	0.9585
2.3425	-22.5649	513.3704	34.9343	-193.7334	-39.448	443.5704	12.8261	234.8915	-16.71	89.6925	6.8192	161.702	-0.0592	0.0182	-0.0073	-0.0462	0.0165	0.9585
2.3554	-20.8064	550.5849	37.0083	-207.6979	-40.2449	472.1275	9.4548	190.2909	-14.3774	72.6648	6.5512	131.1207	-0.0592	0.0182	-0.0073	-0.0462	0.0165	0.9585
2.3684	-19.4014	590.8945	40.0771	-222.6551	-42.0111	503.0759	5.9239	150.044	-12.337	57.2673	6.521	103.5971	-0.0592	0.0182	-0.0073	-0.0462	0.0165	0.9585
2.3813	-18.6083	633.0442	44.1639	-238.1084	-44.8515	535.436	2.5425	114.8361	-10.5655	43.7715	6.5957	79.5403	-0.0592	0.0182	-0.0073	-0.0462	0.0165	0.9585
2.3942	-18.4657	675.3379	49.0575	-253.4289	-48.5944	567.8083	-0.37473	85.0065	-9.0116	32.3223	6.6269	59.1407	-0.0592	0.0182	-0.0073	-0.0462	0.0165	0.9585
2.4071	-18.8642	715.8092	54.276	-267.9155	-52.7795	598.5756	-2.6155	60.5374	-7.5835	22.9292	6.4753	42.3704	-0.0592	0.0182	-0.0073	-0.0462	0.0165	0.9585
2.4201	-19.5722	752.413	59.3075	-280.8554	-56.8937	626.0389	-4.0868	41.1177	-6.2195	15.4855	6.0743	29.0177	-0.0592	0.0182	-0.0073	-0.0462	0.0165	0.9585
2.433	-20.3612	783.2746	63.6943	-291.6083	-60.468	648.6477	-4.8003	26.2464	-4.8843	9.8043	5.4081	18.7564	-0.0592	0.0182	-0.0073	-0.0462	0.0165	0.9585
2.4459	-21.0232	806.9434	67.194	-299.6896	-63.227	665.2249	-4.797	15.3145	-3.6013	5.6517	4.5111	11.1791	-0.0592	0.0182	-0.0073	-0.0462	0.0165	0.9585
2.4589	-21.3721	822.5938	69.7021	-304.8403	-65.0172	675.1028	-4.2082	7.7153	-2.4216	2.7868	3.4619	5.8874	-0.0592	0.0182	-0.0073	-0.0462	0.0165	0.9585
2.4718	-21.2893	830.1366	71.2258	-307.0657	-65.8057	678.2279	-3.2788	2.8596	-1.4323	0.97518	2.4163	2.4797	-0.0592	0.0182	-0.0073	-0.0462	0.0165	0.9585
2.4847	-20.6746	830.2267	71.7911	-306.642	-65.5842	675.1242	-2.3027	0.15298	-0.69042	-0.01908	1.5256	0.56671	-0.0592	0.0182	-0.0073	-0.0462	0.0165	0.9585
2.4976	-19.4689	824.1614	71.4998	-304.0705	-64.4268	666.8476	-1.442	-1.0271	-0.19042	-0.43493	0.8483	-0.28158	-0.0592	0.0182	-0.0073	-0.0462	0.0165	0.9585
2.5106	-17.6407	813.6233	70.4862	-299.9837	-62.4422	654.7401	-0.76885	-1.2301	0.10966	-0.4821	0.38151	-0.44784	-0.0592	0.0182	-0.0073	-0.0462	0.0165	0.9585
2.5235	-15.236	800.3994	68.9655	-295.0354	-59.831	640.2289	-0.29995	-0.87732	0.25901	-0.32232	0.093635	-0.22105	-0.0592	0.0182	-0.0073	-0.0462	0.0165	0.9585
2.5364	-12.3543	786.1537	67.1593	-289.8265	-56.8127	624.6416	-0.0015938	-0.27294	0.30664	-0.071806	-0.065012	0.17672	-0.0592	0.0182	-0.0073	-0.0462	0.0165	0.9585
2.5494	-9.1199	772.3084	65.2725	-284.8658	-53.6049	609.1136	0.14931	0.40508	0.2988	0.19908	-0.1415	0.63679	-0.0592	0.0182	-0.0073	-0.0462	0.0165	0.9585
